<svg xmlns="http://www.w3.org/2000/svg" xmlns:xlink="http://www.w3.org/1999/xlink" width="1000" zoomAndPan="magnify" viewBox="0 0 750 749.999995" height="1000" preserveAspectRatio="xMidYMid meet" version="1.0"><defs><clipPath id="4c414e2e57"><path d="M 22.546875 135.820312 L 727.453125 135.820312 L 727.453125 605.753906 L 22.546875 605.753906 Z M 22.546875 135.820312 " clip-rule="nonzero"/></clipPath><clipPath id="c87a128f9f"><path d="M 341.4375 135.820312 C 469.109375 135.824219 581.140625 237.003906 576.21875 362.691406 L 601.578125 362.691406 C 671.097656 362.691406 727.453125 417.101562 727.453125 484.226562 C 727.453125 551.34375 671.097656 605.761719 601.578125 605.761719 L 148.421875 605.761719 C 78.902344 605.761719 22.546875 551.34375 22.546875 484.226562 C 22.546875 431.113281 57.839844 385.976562 107.011719 369.4375 C 97.792969 241.421875 211.089844 135.820312 341.4375 135.820312 Z M 341.4375 135.820312 " clip-rule="nonzero"/></clipPath><clipPath id="e1e496d3f0"><path d="M 341.4375 135.820312 C 469.109375 135.824219 581.140625 237.003906 576.21875 362.691406 L 601.578125 362.691406 C 671.097656 362.691406 727.453125 417.101562 727.453125 484.226562 C 727.453125 551.34375 671.097656 605.761719 601.578125 605.761719 L 148.421875 605.761719 C 78.902344 605.761719 22.546875 551.34375 22.546875 484.226562 C 22.546875 431.113281 57.839844 385.976562 107.011719 369.4375 C 97.792969 241.421875 211.089844 135.820312 341.4375 135.820312 Z M 341.4375 135.820312 " clip-rule="nonzero"/></clipPath><clipPath id="6bd8a4211b"><path d="M 201.117188 208 L 434.960938 208 L 434.960938 605.753906 L 201.117188 605.753906 Z M 201.117188 208 " clip-rule="nonzero"/></clipPath><clipPath id="c805e2a335"><path d="M 22.546875 563.976562 L 329.828125 196.078125 L 520.539062 355.371094 L 213.257812 723.261719 Z M 22.546875 563.976562 " clip-rule="nonzero"/></clipPath><clipPath id="2c8c3a728f"><path d="M 22.546875 563.976562 L 329.828125 196.078125 L 520.539062 355.371094 L 213.257812 723.261719 Z M 22.546875 563.976562 " clip-rule="nonzero"/></clipPath></defs><g clip-path="url(#4c414e2e57)"><g clip-path="url(#c87a128f9f)"><g clip-path="url(#e1e496d3f0)"><path fill="#1977f2" d="M 22.546875 135.820312 L 727.453125 135.820312 L 727.453125 605.761719 L 22.546875 605.761719 Z M 22.546875 135.820312 " fill-opacity="1" fill-rule="nonzero"/></g></g></g><g clip-path="url(#6bd8a4211b)"><g clip-path="url(#c805e2a335)"><g clip-path="url(#2c8c3a728f)"><path fill="#ffffff" d="M 328.503906 211.0625 L 236.117188 309.171875 C 230.539062 314.957031 234.632812 324.34375 242.769531 324.425781 L 296.488281 325.292969 C 301.769531 325.222656 305.429688 329.773438 305.421875 334.242188 L 302.566406 460.894531 C 302.199219 465.804688 298.894531 469.757812 293.617188 469.824219 L 229.921875 471.070312 L 210.863281 471.5625 C 205.585938 471.632812 201.917969 476.023438 201.914062 480.492188 L 201.820312 497.570312 L 204.734375 706.609375 C 204.730469 711.082031 208.320312 714.824219 212.863281 715.636719 C 217.773438 716.007812 221.953125 712.785156 222.765625 708.242188 L 253.597656 535.597656 C 254.410156 531.054688 258.222656 528.273438 262.253906 527.910156 L 331.589844 526.15625 L 350.648438 525.664062 C 355.484375 525.230469 359.230469 521.644531 359.601562 516.734375 L 359.917969 497.601562 L 362.371094 334.820312 C 362.304688 329.542969 366.851562 325.882812 371.324219 325.890625 L 425.046875 326.757812 C 433.183594 326.839844 437.222656 317.53125 431.804688 311.515625 L 342.285156 210.640625 C 338.328125 207.335938 331.804688 207.105469 328.503906 211.0625 Z M 328.503906 211.0625 " fill-opacity="1" fill-rule="nonzero"/></g></g></g></svg>