<svg width="227" height="47" viewBox="0 0 227 47" fill="none" xmlns="http://www.w3.org/2000/svg">
<g clip-path="url(#clip0_106_123)">
<path d="M77.8708 24.3989V44.8169C77.871 44.9749 77.8402 45.1313 77.7799 45.2774C77.7198 45.4233 77.6312 45.5558 77.5195 45.6676C77.4078 45.7793 77.2753 45.8679 77.1294 45.928C76.9833 45.9883 76.8269 46.0192 76.669 46.0189H67.8484C67.6904 46.0189 67.5343 45.9878 67.3885 45.9275C67.2426 45.8671 67.1101 45.7785 66.9987 45.6668C66.887 45.5553 66.7984 45.4228 66.738 45.2769C66.6777 45.131 66.6466 44.9749 66.6466 44.8169V12.5693C66.6466 12.4114 66.6777 12.2551 66.738 12.1093C66.7984 11.9635 66.887 11.831 66.9987 11.7194C67.1101 11.6078 67.2426 11.5192 67.3885 11.4588C67.5343 11.3984 67.6904 11.3673 67.8484 11.3673H76.669C76.8269 11.367 76.9833 11.3978 77.1294 11.4581C77.2753 11.5184 77.4078 11.6069 77.5195 11.7186C77.6312 11.8303 77.7198 11.9629 77.7799 12.1089C77.8402 12.2549 77.871 12.4113 77.8708 12.5693V15.1093C80.0894 12.3279 83.1991 10.6045 87.5645 10.6045C91.65 10.6045 95.1834 12.2662 97.3224 15.3867C99.9545 12.2662 103.696 10.6045 108.269 10.6045C116.029 10.6045 121.365 15.1787 121.365 23.9084V44.8118C121.366 44.9697 121.335 45.1262 121.275 45.2723C121.214 45.4182 121.126 45.5507 121.014 45.6624C120.902 45.7741 120.77 45.8627 120.624 45.9228C120.478 45.9832 120.322 46.014 120.164 46.0138H111.358C111.04 46.0138 110.734 45.8871 110.509 45.6617C110.283 45.4364 110.157 45.1305 110.157 44.8118V26.2661C110.157 22.4547 108.01 20.5824 105.101 20.5824C102.674 20.5824 100.735 22.108 99.6258 24.3938V44.8118C99.6261 44.9697 99.5952 45.1262 99.5349 45.2723C99.4748 45.4182 99.3862 45.5507 99.2745 45.6624C99.1628 45.7741 99.0303 45.8627 98.8845 45.9228C98.7383 45.9832 98.582 46.014 98.424 46.0138H89.6034C89.2847 46.0138 88.9789 45.8871 88.7537 45.6617C88.5282 45.4364 88.4016 45.1305 88.4016 44.8118V26.2661C88.4016 22.4547 86.2549 20.5824 83.3455 20.5824C80.8495 20.5824 78.9801 22.108 77.8708 24.3989ZM136.131 46.7072C129.619 46.7072 124.144 42.4104 124.144 35.7585C124.144 29.6614 128.163 26.8182 135.645 24.8792L145.208 22.3854C144.931 20.097 143.128 18.9901 140.219 18.9901C137.651 18.9901 135.787 19.9763 134.931 21.9487C134.823 22.2179 134.623 22.4397 134.366 22.5744C134.109 22.709 133.812 22.7476 133.529 22.6833L125.949 20.8855C125.784 20.846 125.629 20.7721 125.494 20.6686C125.359 20.565 125.248 20.4342 125.167 20.2846C125.086 20.135 125.038 19.97 125.025 19.8005C125.013 19.6309 125.036 19.4607 125.094 19.3008C127.269 13.4143 133.311 10.3297 140.627 10.3297C150.465 10.3297 156.147 14.9732 156.147 23.1481V44.8144C156.147 45.1331 156.021 45.439 155.795 45.6642C155.57 45.8897 155.264 46.0163 154.946 46.0163H146.59C146.276 46.0163 145.974 45.8936 145.75 45.6742C145.525 45.4549 145.395 45.1565 145.388 44.8426L145.347 43.0448L145.277 43.1141C142.435 45.5284 139.664 46.7072 136.131 46.7072ZM138.971 38.0443C140.427 38.0443 141.539 37.6308 143.197 36.66L145.139 35.4811L145.208 29.8694L140.219 31.2537C136.824 32.2245 135.299 33.0515 135.299 34.9957C135.299 37.1454 137.171 38.0443 138.971 38.0443ZM174.074 29.6614L170.679 32.7793V44.8118C170.679 44.9697 170.648 45.1262 170.588 45.2723C170.528 45.4182 170.439 45.5507 170.328 45.6624C170.216 45.7741 170.083 45.8627 169.938 45.9228C169.791 45.9832 169.635 46.014 169.477 46.0138H160.864C160.546 46.0138 160.24 45.8871 160.015 45.6617C159.789 45.4364 159.663 45.1305 159.663 44.8118V1.20197C159.663 0.883394 159.79 0.578064 160.015 0.352798C160.241 0.127532 160.546 0.000678539 160.864 0H169.48C169.798 0 170.104 0.126635 170.329 0.352048C170.555 0.57746 170.681 0.883186 170.681 1.20197V20.9291L180.73 11.6832C180.953 11.4792 181.246 11.3665 181.549 11.3673H192.182C192.425 11.3674 192.661 11.4408 192.861 11.5779C193.061 11.715 193.215 11.9094 193.303 12.1355C193.39 12.3616 193.407 12.6089 193.352 12.845C193.296 13.081 193.17 13.2947 192.991 13.4579L182.666 22.8708L194.432 44.2314C194.533 44.4145 194.584 44.6207 194.581 44.8295C194.578 45.0386 194.52 45.2433 194.414 45.4231C194.308 45.6031 194.156 45.7523 193.975 45.8558C193.793 45.9593 193.588 46.0138 193.379 46.0138H183.326C183.106 46.0135 182.89 45.9529 182.703 45.8389C182.515 45.7248 182.362 45.5615 182.26 45.3666L174.074 29.6614Z" fill="black"/>
<path d="M210.622 46.7765C200.993 46.7765 192.193 40.7486 192.193 28.5415C192.193 17.0381 200.646 10.3862 209.929 10.3862C219.561 10.3862 226.558 17.1075 226.836 27.7094C226.866 28.8291 226.884 29.6099 226.895 30.1647C226.897 30.3239 226.868 30.4821 226.808 30.6298C226.749 30.7777 226.661 30.912 226.549 31.0255C226.437 31.1388 226.304 31.2287 226.157 31.2898C226.01 31.3512 225.852 31.3825 225.693 31.382H203.278C203.625 35.5401 206.95 38.1726 211.177 38.1726C214.184 38.1726 216.649 36.9219 218.367 34.6618C218.552 34.4219 218.822 34.2616 219.121 34.2138C219.42 34.1663 219.726 34.2346 219.977 34.4049L225.577 38.1547C225.71 38.2448 225.823 38.3599 225.911 38.4939C225.998 38.6277 226.059 38.7775 226.088 38.9349C226.118 39.0921 226.116 39.2536 226.083 39.4103C226.05 39.567 225.986 39.7154 225.896 39.8472C222.909 44.2647 217.961 46.7765 210.622 46.7765ZM203.486 24.6018H215.612C215.542 20.6517 212.633 18.9207 209.585 18.9207C206.742 18.9207 203.833 20.5824 203.486 24.6018Z" fill="black"/>
<path d="M49.0182 45.9137H40.3157C39.997 45.9137 39.6911 45.7871 39.4659 45.5616C39.2405 45.3361 39.1139 45.0305 39.1139 44.7117V12.5848C39.1159 12.2671 39.2433 11.9631 39.4685 11.7389C39.6935 11.5147 39.998 11.3886 40.3157 11.3879H49.0156C49.3338 11.3872 49.6393 11.5129 49.8653 11.7373C50.091 11.9616 50.2187 12.2664 50.2199 12.5848V44.7117C50.2202 44.8697 50.1894 45.0261 50.129 45.172C50.069 45.3181 49.9804 45.4506 49.8687 45.5624C49.757 45.6741 49.6245 45.7627 49.4786 45.8228C49.3325 45.8831 49.1761 45.914 49.0182 45.9137Z" fill="url(#paint0_linear_106_123)"/>
<path d="M8.6846 46.0343L0.911654 42.1202C0.627083 41.9772 0.410978 41.7268 0.310826 41.4242C0.210672 41.1219 0.234667 40.7922 0.377537 40.5073L14.7987 11.8142C14.9418 11.5296 15.1921 11.3135 15.4945 11.2133C15.7969 11.1131 16.1266 11.1371 16.4113 11.28L24.1868 15.1864C24.4714 15.3296 24.6875 15.5799 24.7877 15.8823C24.8879 16.1847 24.8638 16.5146 24.721 16.7993L10.2972 45.5001C10.1541 45.7847 9.90385 46.001 9.60146 46.1011C9.29909 46.2013 8.9693 46.1771 8.6846 46.0343Z" fill="url(#paint1_linear_106_123)"/>
<path d="M31.644 45.387L37.8068 14.1026C37.8682 13.7911 37.8038 13.4679 37.6276 13.2037C37.4515 12.9396 37.178 12.7558 36.867 12.6926L28.3391 10.9692C28.184 10.9382 28.0243 10.938 27.8692 10.9687C27.7138 10.9994 27.5662 11.0603 27.4347 11.1481C27.303 11.2359 27.19 11.3487 27.1019 11.4802C27.0138 11.6117 26.9527 11.7592 26.9216 11.9144L20.7587 43.2014C20.6975 43.5134 20.7623 43.8368 20.9389 44.1011C21.1155 44.3653 21.3896 44.549 21.7011 44.6114L30.2265 46.3321C30.3816 46.364 30.5416 46.3648 30.6969 46.3345C30.8525 46.3039 31.0004 46.243 31.1322 46.1552C31.2639 46.0673 31.3771 45.9541 31.465 45.8223C31.5528 45.6906 31.6136 45.5426 31.644 45.387Z" fill="url(#paint2_linear_106_123)"/>
</g>
<defs>
<linearGradient id="paint0_linear_106_123" x1="28.5599" y1="34.5926" x2="52.0389" y2="25.9374" gradientUnits="userSpaceOnUse">
<stop offset="0.02" stop-color="#B02DE9"/>
<stop offset="0.8" stop-color="#6D00CC"/>
</linearGradient>
<linearGradient id="paint1_linear_106_123" x1="7.95275" y1="30.6425" x2="33.1937" y2="19.7303" gradientUnits="userSpaceOnUse">
<stop stop-color="#FF00FF"/>
<stop offset="0.18" stop-color="#E80DF9"/>
<stop offset="0.54" stop-color="#C024ED"/>
<stop offset="0.73" stop-color="#B02DE9"/>
</linearGradient>
<linearGradient id="paint2_linear_106_123" x1="2.06461" y1="38.676" x2="53.8042" y2="19.6301" gradientUnits="userSpaceOnUse">
<stop offset="0.02" stop-color="#FF00FF"/>
<stop offset="0.09" stop-color="#E80DF9"/>
<stop offset="0.23" stop-color="#C024ED"/>
<stop offset="0.3" stop-color="#B02DE9"/>
<stop offset="0.42" stop-color="#A42BE3"/>
<stop offset="0.63" stop-color="#8527D5"/>
<stop offset="0.85" stop-color="#6021C3"/>
</linearGradient>
<clipPath id="clip0_106_123">
<rect width="227" height="47" fill="white"/>
</clipPath>
</defs>
</svg>
