<svg width="100" height="34" viewBox="0 0 100 34" fill="none" xmlns="http://www.w3.org/2000/svg">
<g clip-path="url(#clip0_106_110)">
<path d="M8.84606 28.9232C8.84606 31.3078 6.92302 33.2309 4.53841 33.2309C2.15379 33.2309 0.230713 31.3078 0.230713 28.9232C0.230713 26.5386 2.15379 24.6155 4.53841 24.6155C6.92302 24.6155 8.84606 26.5386 8.84606 28.9232Z" fill="black"/>
<path d="M23.2308 29.0003C23.2308 30.6926 21.8461 32.0772 20.1538 32.0772C18.4615 32.0772 17.0769 30.6926 17.0769 29.0003C17.0769 27.308 18.4615 25.9233 20.1538 25.9233C21.8461 25.9233 23.2308 27.308 23.2308 29.0003Z" fill="black"/>
<path d="M34.3847 28.9999C34.3847 29.7691 33.7693 30.3845 33.0001 30.3845C32.2309 30.3845 31.6155 29.7691 31.6155 28.9999C31.6155 28.2306 32.2309 27.6152 33.0001 27.6152C33.7693 27.6152 34.3847 28.2306 34.3847 28.9999Z" fill="black"/>
<path d="M19.3077 19.8462C18.5384 19.8462 18 19.2308 18 18.5385V12.8462C18 10.9231 17.0769 9.38462 15 9.38462C12.9231 9.38462 11.6154 11 11.6154 12.8462V18.4615C11.6154 19.2308 11.0769 19.7692 10.3077 19.7692C9.53844 19.7692 8.99998 19.1538 8.99998 18.4615V12.7692C8.99998 10.8462 7.99998 9.30769 5.92306 9.30769C3.76921 9.30769 2.69229 10.9231 2.69229 12.7692V18.3846C2.69229 19.1538 2.15383 19.6923 1.3846 19.6923C0.615366 19.6923 0.0769043 19.0769 0.0769043 18.3846V8.46154C0.0769043 7.69231 0.615366 7.07692 1.3846 7.07692C2.30767 7.07692 2.69229 7.69231 2.69229 8.46154V9.38462C3.46152 7.92308 4.99998 7 6.69229 7C8.69229 7 10.2308 8 11 9.53846C12.0769 7.84615 13.6923 7 15.6923 7C19.0769 7 20.7692 9.38461 20.7692 12.6923V18.5385C20.6923 19.2308 20.1538 19.8462 19.3077 19.8462Z" fill="black"/>
<path d="M24.3847 19.8464C23.6154 19.8464 23.077 19.231 23.077 18.5387V8.46176C23.077 7.69253 23.6154 7.15407 24.3847 7.15407C25.1539 7.15407 25.6923 7.76946 25.6923 8.46176V18.5387C25.6923 19.231 25.1539 19.8464 24.3847 19.8464ZM24.3847 2.07715C25.2308 2.07715 25.9231 2.76946 25.9231 3.61561C25.9231 4.46176 25.2308 5.15407 24.3847 5.15407C23.5385 5.15407 22.8462 4.46176 22.8462 3.61561C22.8462 2.76946 23.5385 2.07715 24.3847 2.07715Z" fill="black"/>
<path d="M33.1539 11.6923L36.5385 7.53842C36.7693 7.30765 37.077 7.15381 37.3847 7.15381C38.1539 7.15381 38.6154 7.61535 38.6154 8.30765C38.6154 8.53842 38.5385 8.84612 38.3077 9.07689L34.6154 13.4615L38.3847 17.923C38.6154 18.1538 38.6924 18.3846 38.6924 18.6923C38.6924 19.3077 38.1539 19.8461 37.5385 19.8461C37.1539 19.8461 36.8462 19.6923 36.6154 19.3846L33.2308 15.1538L29.8462 19.3846C29.6154 19.6923 29.3077 19.8461 28.9231 19.8461C28.3077 19.8461 27.7693 19.3077 27.7693 18.6923C27.7693 18.3846 27.8462 18.1538 28.077 17.923L31.8462 13.4615L28.1539 9.07689C27.9231 8.84612 27.8462 8.53842 27.8462 8.30765C27.8462 7.61535 28.3077 7.15381 29.077 7.15381C29.4616 7.15381 29.6924 7.30765 29.9231 7.53842L33.1539 11.6923Z" fill="black"/>
<path d="M47.0768 9.23099C44.7691 9.23099 43.3075 11.231 43.3075 13.5387C43.3075 15.7695 44.846 17.8464 47.0768 17.8464C49.3844 17.8464 50.846 16.1541 50.846 13.5387C50.846 10.9233 49.3844 9.23099 47.0768 9.23099ZM47.6152 20.0002C45.6921 20.0002 44.1537 19.0002 43.3075 17.5387V23.8464C43.3075 24.6156 42.7691 25.1541 41.9998 25.1541C41.2306 25.1541 40.6921 24.5387 40.6921 23.8464V8.46176C40.6921 7.69253 41.1537 7.15407 41.9229 7.15407C42.6921 7.15407 43.2306 7.76946 43.2306 8.53869V9.53869C44.0768 8.07715 45.7691 7.07715 47.6152 7.07715C50.846 7.07715 53.4614 9.76946 53.4614 13.5387C53.4614 17.3848 50.846 20.0002 47.6152 20.0002Z" fill="black"/>
<path d="M60.9999 9.30792C58.7691 9.30792 57.1537 11.231 57.1537 13.5387C57.1537 16.0002 58.4614 17.7695 60.9999 17.7695C63.3076 17.7695 64.846 15.7695 64.846 13.5387C64.7691 10.8464 63.2306 9.30792 60.9999 9.30792ZM67.4614 18.5387C67.4614 19.3079 66.9229 19.8464 66.1537 19.8464C65.3845 19.8464 64.846 19.231 64.846 18.5387V17.9233C64.0768 19.0771 62.5383 20.0002 60.7691 20.0002C56.846 20.0002 54.5383 17.0771 54.5383 13.5387C54.5383 10.0002 57.0768 7.07715 61.0768 7.07715C65.1537 7.07715 67.5383 9.76946 67.5383 13.5387V18.5387H67.4614Z" fill="black"/>
<path d="M75.3848 7C78.7693 7 81.3078 9.61539 81.3078 12.9231V18.5385C81.3078 19.3077 80.6924 19.8462 80.0001 19.8462C79.2308 19.8462 78.6924 19.2308 78.6924 18.5385V12.6154C78.6924 10.8462 77.3078 9.46154 75.4617 9.46154C73.6155 9.46154 72.2309 10.8462 72.2309 12.6154V18.5385C72.2309 19.3077 71.6155 19.8462 70.9232 19.8462C70.154 19.8462 69.6155 19.2308 69.6155 18.5385V12.9231C69.5386 9.61539 72.0001 7 75.3848 7Z" fill="black"/>
<path d="M89.2308 9.15385C87.3077 9.15385 86 10.5385 85.6923 12.3077H92.6154C92.3846 10.5385 91.1539 9.15385 89.2308 9.15385ZM95.0769 13.5385C95.0769 14 94.8462 14.4615 94.0769 14.4615H85.6923C85.8462 16.3846 87.1539 17.8462 89.4616 17.8462C90.9231 17.8462 91.7692 17.3077 92.6923 16.4615C92.9231 16.2308 93.2308 16 93.5385 16C94.1539 16 94.6154 16.4615 94.6154 17.0769C94.6154 17.3846 94.4616 17.6154 94.3077 17.8462C93.2308 19.0769 91.3077 19.9231 89.3077 19.9231C85.0769 19.9231 82.9231 17 82.9231 13.4615C82.9231 9.76923 85.6154 7 89.2308 7C92.7692 7 95.0769 9.92308 95.0769 13.5385Z" fill="black"/>
<path d="M98.2308 19.846C97.4616 19.846 96.9231 19.2306 96.9231 18.5383V1.92292C96.9231 1.15369 97.4616 0.615234 98.2308 0.615234C99 0.615234 99.5385 1.23062 99.5385 1.92292V18.5383C99.5385 19.2306 99 19.846 98.2308 19.846Z" fill="black"/>
</g>
<defs>
<clipPath id="clip0_106_110">
<rect width="100" height="33.8462" fill="white"/>
</clipPath>
</defs>
</svg>
