<svg width="100" height="27" viewBox="0 0 100 27" fill="none" xmlns="http://www.w3.org/2000/svg">
<g clip-path="url(#clip0_106_106)">
<path fill-rule="evenodd" clip-rule="evenodd" d="M36.3132 8.2904L36.3971 9.78904C37.3538 8.62995 38.6099 8.05044 40.1646 8.05044C42.8587 8.05044 44.23 9.59678 44.2778 12.6895V21.2586H41.3729V12.8572C41.3729 12.0343 41.1956 11.4254 40.841 11.0292C40.4864 10.6338 39.9061 10.4361 39.1009 10.4361C37.9286 10.4361 37.0552 10.9679 36.4823 12.0302V21.2586H33.576V8.2904H36.3146H36.3132ZM52.9366 21.4986C51.0954 21.4986 49.602 20.9177 48.4585 19.7551C47.3143 18.5927 46.7422 17.0443 46.7422 15.1107V14.7513C46.7422 13.4572 46.991 12.3002 47.4895 11.2815C47.9873 10.2629 48.6876 9.46998 49.5884 8.90196C50.4892 8.33537 51.4937 8.0518 52.6024 8.0518C54.3638 8.0518 55.7255 8.61496 56.6856 9.74127C57.6471 10.8684 58.1272 12.4618 58.1272 14.5236V15.6984H49.6716C49.7603 16.7688 50.1162 17.6156 50.7422 18.2388C51.3682 18.862 52.1558 19.1736 53.1043 19.1736C54.4354 19.1736 55.5196 18.635 56.357 17.5556L57.9233 19.0543C57.4051 19.8288 56.7136 20.4302 55.8489 20.8577C54.9836 21.2852 54.0133 21.4986 52.9372 21.4986H52.9366ZM52.5902 10.389C51.7923 10.389 51.1493 10.6685 50.659 11.2276C50.1681 11.7867 49.8557 12.5661 49.7201 13.565H55.2571V13.3488C55.193 12.3738 54.9339 11.6374 54.4797 11.1377C54.0249 10.6386 53.3955 10.389 52.5902 10.389ZM64.0222 5.13904V8.29111H66.3066V10.4484H64.0222V17.6872C64.0222 18.1823 64.1204 18.5395 64.3154 18.7597C64.5104 18.9792 64.8595 19.089 65.3621 19.089C65.7043 19.0881 66.0452 19.0478 66.3781 18.969V21.2225C65.7167 21.4065 65.0792 21.4979 64.4647 21.4979C62.2329 21.4979 61.1166 20.2638 61.1166 17.7949V10.4477H58.9863V8.2904H61.1153V5.13835H64.0209L64.0222 5.13904ZM71.6165 21.2593H68.7103V2.85017H71.6165V21.2593ZM77.8709 21.2593H74.9646V8.29111H77.8709V21.2593ZM74.7853 4.9229C74.7853 4.47631 74.9264 4.10472 75.2095 3.80881C75.4931 3.51359 75.8975 3.36563 76.4233 3.36563C76.9497 3.36563 77.356 3.51359 77.6438 3.80881C77.9302 4.10472 78.0734 4.47631 78.0734 4.92359C78.0734 5.36268 77.9302 5.72813 77.6438 6.01995C77.356 6.31177 76.9497 6.45768 76.4233 6.45768C75.8975 6.45768 75.4931 6.31177 75.2095 6.01995C74.9264 5.72881 74.7853 5.36268 74.7853 4.92359V4.9229ZM82.0566 21.2593V10.4477H80.0829V8.2904H82.0566V7.10404C82.0566 5.6654 82.4545 4.5554 83.252 3.77199C84.0494 2.98926 85.165 2.5979 86.5996 2.5979C87.1108 2.5979 87.6531 2.6695 88.2272 2.81336L88.1555 5.09063C87.7886 5.02257 87.4162 4.9906 87.043 4.99518C85.6555 4.99518 84.9617 5.70973 84.9617 7.14018V8.2904H87.5925V10.4477H84.9617V21.2586H82.0566V21.2593ZM94.2416 17.0886L96.8724 8.29111H99.9697L94.8285 23.2249C94.039 25.4061 92.6993 26.497 90.8102 26.497C90.3875 26.497 89.921 26.4247 89.4106 26.2808V24.0275L89.9609 24.0636C90.6937 24.0636 91.2464 23.9299 91.6172 23.662C91.9872 23.3947 92.2807 22.9454 92.496 22.3141L92.9146 21.1992L88.37 8.29111H91.5032L94.2416 17.0886Z" fill="#0E1E25"/>
<path d="M18.9363 9.07917L18.9268 9.07502C18.9213 9.07303 18.9159 9.07096 18.9111 9.06617C18.9033 9.0578 18.8975 9.04767 18.8942 9.03675C18.8909 9.02574 18.8902 9.0141 18.892 9.00278L19.4191 5.78052L21.891 8.25278L19.3202 9.3464C19.3131 9.34935 19.3055 9.3507 19.2977 9.35054H19.2875C19.2841 9.34847 19.2807 9.34576 19.2739 9.3389C19.1782 9.23244 19.0638 9.1444 18.9363 9.07917ZM22.5218 8.88276L25.1648 11.5255C25.7138 12.075 25.9886 12.3492 26.0888 12.6669C26.1038 12.7139 26.1161 12.761 26.1256 12.8094L19.8092 10.1346C19.8058 10.1332 19.8024 10.1319 19.7989 10.1305C19.7737 10.1203 19.7444 10.1087 19.7444 10.0828C19.7444 10.0568 19.7744 10.0446 19.7996 10.0344L19.8078 10.031L22.5218 8.88276ZM26.0179 13.6576C25.8815 13.9139 25.6155 14.1798 25.1655 14.6305L22.1856 17.6094L18.3315 16.8069L18.311 16.8028C18.2769 16.7974 18.2408 16.7912 18.2408 16.7605C18.2262 16.6016 18.179 16.4473 18.1021 16.3073C18.0253 16.1674 17.9205 16.0448 17.7941 15.9471C17.7785 15.9314 17.7826 15.9068 17.7874 15.8844C17.7874 15.881 17.7874 15.8776 17.7887 15.8749L18.5136 11.4253L18.5163 11.4103C18.5204 11.3762 18.5265 11.3367 18.5572 11.3367C18.7126 11.3174 18.8625 11.2673 18.9983 11.1895C19.1341 11.1116 19.2531 11.0075 19.3482 10.8832C19.3543 10.8765 19.3584 10.869 19.3666 10.8648C19.3885 10.8546 19.4144 10.8648 19.4369 10.8744L26.0172 13.6576H26.0179ZM21.5003 18.2946L16.6001 23.1942L17.4389 18.0396L17.4402 18.0328C17.441 18.026 17.4423 18.0191 17.4444 18.013C17.4512 17.9966 17.4689 17.9899 17.4859 17.983L17.4941 17.9796C17.6778 17.9013 17.8402 17.7804 17.9681 17.6271C17.9844 17.608 18.0042 17.5896 18.0294 17.5862C18.036 17.5852 18.0426 17.5852 18.0492 17.5862L21.4996 18.2953L21.5003 18.2946ZM15.563 24.2312L15.0106 24.7835L8.90427 15.9594C8.90204 15.9561 8.89972 15.9529 8.89741 15.9498C8.88784 15.9369 8.87763 15.9239 8.87971 15.9089C8.87971 15.898 8.8872 15.8885 8.8947 15.8803L8.90148 15.8714C8.9199 15.8442 8.93561 15.8169 8.95267 15.7875L8.96631 15.7637L8.9683 15.7616C8.97787 15.7453 8.98673 15.7296 9.00315 15.7207C9.01743 15.7139 9.0372 15.7167 9.05291 15.7201L15.818 17.1151C15.837 17.118 15.8547 17.1257 15.8698 17.1375C15.8787 17.1464 15.8807 17.156 15.8828 17.1669C15.93 17.3454 16.0178 17.5106 16.1394 17.6496C16.261 17.7886 16.4131 17.8975 16.5838 17.968C16.6029 17.9776 16.5947 17.9987 16.5858 18.0212C16.5814 18.0311 16.578 18.0414 16.5756 18.0519C16.4904 18.5701 15.7594 23.0278 15.563 24.2312ZM14.4092 25.3841C14.0021 25.7871 13.7621 26.0005 13.4907 26.0864C13.2231 26.171 12.9359 26.171 12.6683 26.0864C12.3506 25.9856 12.0757 25.7114 11.5268 25.1619L5.3945 19.0303L6.99629 16.5464C7.00378 16.5342 7.01129 16.5233 7.02356 16.5144C7.04061 16.5021 7.06515 16.5076 7.08562 16.5144C7.45326 16.6253 7.84801 16.6053 8.20259 16.4578C8.22102 16.4509 8.23936 16.4462 8.25371 16.4592C8.26089 16.4657 8.26727 16.473 8.27277 16.481L14.4092 25.3848V25.3841ZM4.8033 18.4391L3.39654 17.0326L6.1746 15.8476C6.18169 15.8445 6.18935 15.8428 6.1971 15.8428C6.22028 15.8428 6.23392 15.866 6.2462 15.8871C6.27412 15.93 6.30369 15.9719 6.33484 16.0126L6.34371 16.0235C6.35189 16.0351 6.34644 16.0466 6.33826 16.0576L4.80398 18.4391H4.8033ZM2.77397 16.41L0.994205 14.6305C0.691442 14.3278 0.47187 14.1083 0.319125 13.9194L5.73068 15.0417C5.73747 15.0429 5.7443 15.0441 5.75113 15.045C5.78455 15.0505 5.82137 15.0567 5.82137 15.088C5.82137 15.1221 5.78114 15.1378 5.74704 15.1508L5.73136 15.1576L2.77397 16.41ZM0.00817871 13.0044C0.0143459 12.8898 0.034966 12.7764 0.0695497 12.6669C0.170471 12.3492 0.444594 12.075 0.994205 11.5255L3.27175 9.24823C4.3204 10.77 5.37188 12.2898 6.42621 13.8076C6.44463 13.8321 6.46508 13.8594 6.44395 13.8798C6.34439 13.9896 6.24484 14.1096 6.1746 14.2399C6.16698 14.2566 6.15525 14.2711 6.14051 14.2821C6.13164 14.2875 6.12209 14.2856 6.11186 14.2835H6.1105L0.00817871 13.0037V13.0044ZM3.88137 8.63866L6.94242 5.57665C7.23086 5.70279 8.27891 6.14529 9.21519 6.54074C9.92436 6.84074 10.5708 7.11347 10.774 7.20211C10.7945 7.21029 10.8129 7.21847 10.8217 7.23892C10.8272 7.2512 10.8244 7.26688 10.8217 7.27983C10.7732 7.50086 10.7805 7.73047 10.8427 7.94802C10.905 8.16561 11.0203 8.36426 11.1784 8.52622C11.1988 8.54664 11.1784 8.57598 11.1606 8.60118L11.1511 8.61553L8.04167 13.4312C8.03346 13.4448 8.02596 13.4564 8.01232 13.4653C7.99598 13.4755 7.97276 13.4707 7.95367 13.466C7.83273 13.4343 7.70841 13.4174 7.5834 13.4155C7.47157 13.4155 7.35019 13.4359 7.22745 13.4584H7.22676C7.21313 13.4605 7.20086 13.4632 7.18995 13.4551C7.1779 13.4452 7.16753 13.4335 7.15926 13.4203L3.88069 8.63866H3.88137ZM7.56226 4.95825L11.5268 0.994155C12.0757 0.445291 12.3506 0.170518 12.6683 0.0702911C12.9359 -0.0143158 13.2231 -0.0143158 13.4907 0.0702911C13.8085 0.170518 14.0833 0.445291 14.6322 0.994155L15.4914 1.85325L12.6717 6.21961C12.6648 6.23232 12.6552 6.24346 12.6437 6.25234C12.6268 6.26392 12.6028 6.25916 12.5824 6.25234C12.3601 6.18488 12.1247 6.1726 11.8966 6.21656C11.6685 6.26051 11.4545 6.35938 11.2732 6.50461C11.2547 6.5237 11.2275 6.51279 11.2043 6.50256C10.8361 6.34234 7.97208 5.13211 7.56226 4.95825ZM16.0901 2.45188L18.6936 5.05506L18.0662 8.9401V8.9503C18.0657 8.95916 18.0638 8.96785 18.0608 8.97622C18.054 8.98986 18.0403 8.99257 18.0267 8.99664C17.8925 9.03731 17.7662 9.10022 17.653 9.18276C17.6481 9.18627 17.6436 9.19018 17.6394 9.1944C17.6319 9.20254 17.6244 9.21003 17.6121 9.21139C17.6021 9.21171 17.5921 9.21011 17.5827 9.20668L13.6155 7.5212L13.608 7.51779C13.5827 7.50756 13.5528 7.49529 13.5528 7.46938C13.5295 7.24833 13.4572 7.03522 13.3413 6.84552C13.3223 6.81416 13.3012 6.78143 13.3175 6.74938L16.0901 2.45188ZM13.4089 8.3196L17.128 9.89464C17.1484 9.90413 17.1709 9.91298 17.1798 9.93412C17.1833 9.94687 17.1833 9.96027 17.1798 9.97303C17.1689 10.0276 17.1593 10.0896 17.1593 10.1523V10.2567C17.1593 10.2826 17.1327 10.2934 17.1082 10.3037L17.1007 10.3064C16.5115 10.558 8.82923 13.8335 8.81767 13.8335C8.80602 13.8335 8.79374 13.8335 8.78218 13.8219C8.76169 13.8014 8.78218 13.7728 8.8006 13.7469C8.80387 13.7424 8.80706 13.7379 8.81017 13.7332L11.8664 9.00142L11.8719 8.99321C11.8896 8.96458 11.9101 8.9326 11.9428 8.9326L11.9735 8.9373C12.043 8.94687 12.1044 8.95573 12.1665 8.95573C12.6301 8.95573 13.0598 8.73005 13.3189 8.34416C13.325 8.33388 13.3329 8.32463 13.3421 8.31689C13.3605 8.30325 13.3878 8.31003 13.4089 8.3196ZM9.14972 14.5821L17.5235 11.0114C17.5235 11.0114 17.5357 11.0115 17.5473 11.023C17.593 11.0687 17.6319 11.0993 17.6693 11.1281L17.6878 11.1396C17.7048 11.1492 17.7219 11.16 17.7232 11.1778C17.7232 11.1846 17.7232 11.1887 17.7219 11.1948L17.0045 15.6008L17.0018 15.6185C16.997 15.6525 16.9922 15.6915 16.9602 15.6915C16.7689 15.7044 16.5837 15.7637 16.4206 15.8643C16.2575 15.9649 16.1213 16.1038 16.024 16.269L16.0205 16.2744C16.011 16.2901 16.0021 16.3051 15.9865 16.3132C15.9721 16.3201 15.9537 16.3174 15.9387 16.3139L9.26089 14.9367C9.25403 14.9353 9.15722 14.5828 9.14972 14.5821Z" fill="url(#paint0_radial_106_106)"/>
</g>
<defs>
<radialGradient id="paint0_radial_106_106" cx="0" cy="0" r="1" gradientUnits="userSpaceOnUse" gradientTransform="translate(-0.868697 12.7095) rotate(90) scale(26.1143 30.1535)">
<stop stop-color="#20C6B7"/>
<stop offset="1" stop-color="#4D9ABF"/>
</radialGradient>
<clipPath id="clip0_106_106">
<rect width="100" height="26.555" fill="white"/>
</clipPath>
</defs>
</svg>
