<svg width="216" height="90" viewBox="0 0 216 90" fill="none" xmlns="http://www.w3.org/2000/svg">
<g clip-path="url(#clip0_106_87)">
<path fill-rule="evenodd" clip-rule="evenodd" d="M216 46.44C216 31.08 208.56 18.96 194.34 18.96C180.06 18.96 171.42 31.08 171.42 46.32C171.42 64.3799 181.62 73.4999 196.26 73.4999C203.4 73.4999 208.8 71.8799 212.88 69.5999V57.6C208.8 59.64 204.12 60.8999 198.18 60.8999C192.36 60.8999 187.2 58.86 186.54 51.78H215.88C215.88 51 216 47.88 216 46.44ZM186.36 40.74C186.36 33.96 190.5 31.14 194.28 31.14C197.94 31.14 201.84 33.96 201.84 40.74H186.36Z" fill="#635BFF"/>
<path fill-rule="evenodd" clip-rule="evenodd" d="M148.26 18.96C142.38 18.96 138.6 21.72 136.5 23.64L135.72 19.92H122.52V89.8799L137.52 86.6999L137.58 69.7199C139.74 71.2799 142.92 73.4999 148.2 73.4999C158.94 73.4999 168.72 64.8599 168.72 45.84C168.66 28.44 158.76 18.96 148.26 18.96ZM144.66 60.2999C141.12 60.2999 139.02 59.04 137.58 57.48L137.52 35.22C139.08 33.48 141.24 32.28 144.66 32.28C150.12 32.28 153.9 38.4 153.9 46.26C153.9 54.3 150.18 60.2999 144.66 60.2999Z" fill="#635BFF"/>
<path fill-rule="evenodd" clip-rule="evenodd" d="M101.88 15.42L116.94 12.18V0L101.88 3.18V15.42Z" fill="#635BFF"/>
<path d="M116.94 19.98H101.88V72.4801H116.94V19.98Z" fill="#635BFF"/>
<path fill-rule="evenodd" clip-rule="evenodd" d="M85.7399 24.4198L84.7799 19.9798H71.8199V72.4799H86.8199V36.8998C90.3599 32.2798 96.3599 33.1198 98.2199 33.7798V19.9798C96.2999 19.2598 89.2799 17.9398 85.7399 24.4198Z" fill="#635BFF"/>
<path fill-rule="evenodd" clip-rule="evenodd" d="M55.7399 6.95996L41.0999 10.08L41.0399 58.14C41.0399 67.0199 47.6999 73.5599 56.5799 73.5599C61.5 73.5599 65.1 72.6599 67.08 71.5799V59.4C65.16 60.1799 55.6799 62.9399 55.6799 54.06V32.76H67.08V19.98H55.6799L55.7399 6.95996Z" fill="#635BFF"/>
<path fill-rule="evenodd" clip-rule="evenodd" d="M15.18 35.22C15.18 32.88 17.1 31.98 20.28 31.98C24.84 31.98 30.6 33.36 35.16 35.82V21.72C30.18 19.74 25.26 18.96 20.28 18.96C8.1 18.96 0 25.32 0 35.94C0 52.5 22.8 49.86 22.8 57C22.8 59.76 20.4 60.6599 17.04 60.6599C12.06 60.6599 5.7 58.62 0.66 55.86V70.1399C6.24 72.5399 11.88 73.5599 17.04 73.5599C29.52 73.5599 38.1 67.3799 38.1 56.64C38.04 38.76 15.18 41.94 15.18 35.22Z" fill="#635BFF"/>
</g>
<defs>
<clipPath id="clip0_106_87">
<rect width="216" height="90" fill="white"/>
</clipPath>
</defs>
</svg>
