<svg width="226" height="44" viewBox="0 0 226 44" fill="none" xmlns="http://www.w3.org/2000/svg">
<g clip-path="url(#clip0_106_74)">
<path d="M58.8911 25.9954C59.1241 28.1765 61.106 31.9153 66.8575 31.9153C71.8704 31.9153 74.2801 28.7217 74.2801 25.606C74.2801 22.8018 72.3756 20.504 68.6064 19.725L65.8858 19.1408C64.8367 18.9461 64.1373 18.3619 64.1373 17.4272C64.1373 16.3366 65.2253 15.5188 66.5856 15.5188C68.7616 15.5188 69.5777 16.9598 69.7333 18.0893L74.0467 17.1156C73.8137 15.0514 71.9871 11.5852 66.5467 11.5852C62.4274 11.5852 59.3964 14.4283 59.3964 17.8556C59.3964 20.5429 61.0671 22.7629 64.7589 23.5807L67.285 24.165C68.7616 24.4765 69.3447 25.1776 69.3447 26.0344C69.3447 27.047 68.5286 27.9428 66.8186 27.9428C64.5648 27.9428 63.4376 26.5407 63.3213 25.0218L58.8911 25.9954Z" fill="#1C1C1C"/>
<path d="M90.7972 31.331H95.7326C95.6548 30.6689 95.5382 29.3447 95.5382 27.8647V12.1692H90.3693V23.3079C90.3693 25.5279 89.0483 27.0858 86.7557 27.0858C84.3463 27.0858 83.2579 25.3721 83.2579 23.23V12.1692H78.0895V24.2817C78.0895 28.4489 80.7319 31.8373 85.3565 31.8373C87.3769 31.8373 89.5929 31.0584 90.642 29.2668C90.642 30.0457 90.7194 30.9415 90.7972 31.331Z" fill="#1C1C1C"/>
<path d="M106.222 38.731V29.4618C107.155 30.7469 109.098 31.7986 111.741 31.7986C117.142 31.7986 120.756 27.5143 120.756 21.7113C120.756 16.0251 117.531 11.741 111.935 11.741C109.06 11.741 106.922 13.0262 106.067 14.5062V12.1694H101.054V38.731H106.222ZM115.665 21.7503C115.665 25.1776 113.567 27.1639 110.924 27.1639C108.282 27.1639 106.145 25.1387 106.145 21.7503C106.145 18.3619 108.282 16.3756 110.924 16.3756C113.567 16.3756 115.665 18.3619 115.665 21.7503Z" fill="#1C1C1C"/>
<path d="M123.683 26.1123C123.683 29.1112 126.17 31.8764 130.251 31.8764C133.087 31.8764 134.913 30.5522 135.885 29.0333C135.885 29.7733 135.963 30.8248 136.079 31.3312H140.82C140.704 30.6691 140.588 29.3059 140.588 28.2933V18.8682C140.588 15.0125 138.333 11.5852 132.271 11.5852C127.142 11.5852 124.382 14.8956 124.072 17.8945L128.657 18.8682C128.813 17.1935 130.056 15.7525 132.31 15.7525C134.486 15.7525 135.535 16.8819 135.535 18.2451C135.535 18.9072 135.186 19.4524 134.098 19.6082L129.396 20.3092C126.209 20.7766 123.683 22.685 123.683 26.1123ZM131.338 28.0207C129.668 28.0207 128.851 26.9302 128.851 25.8007C128.851 24.3208 129.9 23.5807 131.222 23.386L135.535 22.7239V23.5807C135.535 26.9692 133.515 28.0207 131.338 28.0207Z" fill="#1C1C1C"/>
<path d="M150.81 31.3313V28.9944C151.82 30.6302 153.841 31.7986 156.484 31.7986C161.925 31.7986 165.5 27.4755 165.5 21.6724C165.5 15.9862 162.274 11.6632 156.678 11.6632C153.841 11.6632 151.743 12.9094 150.888 14.2725V3.13379H145.797V31.3313H150.81ZM160.331 21.7113C160.331 25.2166 158.233 27.1639 155.59 27.1639C152.986 27.1639 150.81 25.1777 150.81 21.7113C150.81 18.2061 152.986 16.2978 155.59 16.2978C158.233 16.2978 160.331 18.2061 160.331 21.7113Z" fill="#1C1C1C"/>
<path d="M168.426 26.1123C168.426 29.1112 170.913 31.8764 174.994 31.8764C177.83 31.8764 179.657 30.5522 180.628 29.0333C180.628 29.7733 180.706 30.8248 180.823 31.3312H185.563C185.448 30.6691 185.331 29.3059 185.331 28.2933V18.8682C185.331 15.0125 183.077 11.5852 177.014 11.5852C171.885 11.5852 169.126 14.8956 168.815 17.8945L173.4 18.8682C173.556 17.1935 174.8 15.7525 177.053 15.7525C179.23 15.7525 180.279 16.8819 180.279 18.2451C180.279 18.9072 179.929 19.4524 178.841 19.6082L174.139 20.3092C170.952 20.7766 168.426 22.685 168.426 26.1123ZM176.082 28.0207C174.411 28.0207 173.594 26.9302 173.594 25.8007C173.594 24.3208 174.644 23.5807 175.965 23.386L180.279 22.7239V23.5807C180.279 26.9692 178.258 28.0207 176.082 28.0207Z" fill="#1C1C1C"/>
<path d="M188.908 25.9954C189.141 28.1765 191.123 31.9153 196.874 31.9153C201.888 31.9153 204.297 28.7217 204.297 25.606C204.297 22.8018 202.393 20.504 198.623 19.725L195.903 19.1408C194.854 18.9461 194.155 18.3619 194.155 17.4272C194.155 16.3366 195.242 15.5188 196.602 15.5188C198.779 15.5188 199.595 16.9598 199.751 18.0893L204.064 17.1156C203.831 15.0514 202.004 11.5852 196.564 11.5852C192.444 11.5852 189.414 14.4283 189.414 17.8556C189.414 20.5429 191.084 22.7629 194.776 23.5807L197.302 24.165C198.779 24.4765 199.362 25.1776 199.362 26.0344C199.362 27.047 198.546 27.9428 196.836 27.9428C194.582 27.9428 193.455 26.5407 193.338 25.0218L188.908 25.9954Z" fill="#1C1C1C"/>
<path d="M212.146 19.5692C212.263 17.8167 213.74 15.7914 216.421 15.7914C219.374 15.7914 220.618 17.6609 220.696 19.5692H212.146ZM221.201 24.5545C220.579 26.268 219.258 27.4754 216.849 27.4754C214.284 27.4754 212.146 25.6449 212.03 23.1134H225.709C225.709 23.0354 225.786 22.2566 225.786 21.5166C225.786 15.363 222.251 11.5852 216.343 11.5852C211.447 11.5852 206.939 15.5577 206.939 21.6724C206.939 28.1375 211.563 31.9153 216.81 31.9153C221.512 31.9153 224.543 29.1501 225.515 25.8396L221.201 24.5545Z" fill="#1C1C1C"/>
<path d="M24.7813 42.9424C23.669 44.3446 21.4137 43.5763 21.3869 41.786L20.995 15.5996H38.5848C41.7707 15.5996 43.5476 19.2832 41.5665 21.7809L24.7813 42.9424Z" fill="url(#paint0_linear_106_74)"/>
<path d="M24.7813 42.9424C23.669 44.3446 21.4137 43.5763 21.3869 41.786L20.995 15.5996H38.5848C41.7707 15.5996 43.5476 19.2832 41.5665 21.7809L24.7813 42.9424Z" fill="url(#paint1_linear_106_74)" fill-opacity="0.2"/>
<path d="M17.6277 0.806464C18.74 -0.595851 20.9953 0.172517 21.0221 1.96291L21.1938 28.1492H3.82421C0.638134 28.1492 -1.1388 24.4656 0.842398 21.9679L17.6277 0.806464Z" fill="#3ECF8E"/>
</g>
<defs>
<linearGradient id="paint0_linear_106_74" x1="20.995" y1="21.4058" x2="36.6329" y2="27.9576" gradientUnits="userSpaceOnUse">
<stop stop-color="#249361"/>
<stop offset="1" stop-color="#3ECF8E"/>
</linearGradient>
<linearGradient id="paint1_linear_106_74" x1="14.0641" y1="11.9065" x2="21.2049" y2="25.3351" gradientUnits="userSpaceOnUse">
<stop/>
<stop offset="1" stop-opacity="0"/>
</linearGradient>
<clipPath id="clip0_106_74">
<rect width="226" height="44" fill="white"/>
</clipPath>
</defs>
</svg>
