<svg width="196" height="44" viewBox="0 0 196 44" fill="none" xmlns="http://www.w3.org/2000/svg">
<g clip-path="url(#clip0_106_67)">
<path fill-rule="evenodd" clip-rule="evenodd" d="M154.695 12.8946C155.422 14.1565 155.659 15.5922 155.738 17.2063L155.841 19.3577V34.4014L155.946 36.555C156.157 40.0721 158.732 42.6727 162.252 42.8939L164.379 43V19.3577L164.484 17.2063C164.572 15.6103 164.807 14.1475 165.544 12.8765C166.296 11.5729 167.375 10.4914 168.673 9.74044C169.97 8.98951 171.441 8.59564 172.938 8.59839C174.435 8.60113 175.905 9.00039 177.2 9.75607C178.495 10.5118 179.57 11.5973 180.316 12.9036C181.043 14.1655 181.269 15.6284 181.357 17.2063L181.462 19.3509V34.4014L181.567 36.555C181.787 40.0901 184.342 42.6907 187.873 42.8939L190 43V17.2063C190 12.6453 188.201 8.27098 185 5.04521C181.798 1.81944 177.455 0.00631673 172.926 0.00452096C170.502 0.00194648 168.105 0.52036 165.896 1.52513C163.687 2.5299 161.716 3.99788 160.115 5.83101C158.514 3.9986 156.543 2.53097 154.334 1.52591C152.125 0.520841 149.729 0.00142331 147.305 0.00226307C143.759 0.00226307 140.468 1.08584 137.742 2.95727C136.079 1.0881 132.358 0.00226307 130.222 0.00226307V43L132.358 42.8939C135.931 42.6569 138.513 40.1263 138.652 36.555L138.767 34.4014V19.3577L138.872 17.2063C138.962 15.5832 139.186 14.1565 139.914 12.8856C140.666 11.5828 141.745 10.5015 143.042 9.74961C144.338 8.99777 145.808 8.60168 147.305 8.60091C148.802 8.60123 150.273 8.99811 151.571 9.75172C152.868 10.5053 153.945 11.5892 154.695 12.8946V12.8946ZM8.53814 42.8962L10.6744 43H42.6952L42.5898 40.8554C42.3007 37.3202 39.8148 34.7377 36.2933 34.5075L34.1571 34.4014H14.9468L40.559 8.59865L40.4536 6.45633C40.2877 2.88503 37.6965 0.304763 34.1571 0.108363L32.0208 0.0112927L0 0.00226307L0.105354 2.15362C0.38555 5.65493 2.90732 8.29164 6.39968 8.49481L8.53814 8.60091H27.7484L2.13622 34.4036L2.24157 36.555C2.45228 40.0992 4.99198 42.6659 8.53814 42.8939V42.8962ZM121.841 6.29605C123.823 8.29236 125.396 10.6625 126.469 13.271C127.542 15.8795 128.094 18.6754 128.094 21.4989C128.094 24.3224 127.542 27.1182 126.469 29.7268C125.396 32.3353 123.823 34.7054 121.841 36.7017C117.835 40.7325 112.404 42.9967 106.741 42.9967C101.079 42.9967 95.6478 40.7325 91.6421 36.7017C83.3057 28.3062 83.3057 14.6915 91.6421 6.29605C93.623 4.3004 95.9748 2.71724 98.5632 1.63696C101.152 0.556686 103.926 0.000445645 106.728 5.18266e-06C109.534 -0.00195706 112.314 0.553303 114.907 1.63403C117.5 2.71475 119.856 4.29973 121.841 6.2983V6.29605ZM115.8 12.3844C118.201 14.8044 119.55 18.0856 119.55 21.5068C119.55 24.9279 118.201 28.2091 115.8 30.6291C113.397 33.0474 110.138 34.4057 106.741 34.4057C103.344 34.4057 100.086 33.0474 97.6832 30.6291C95.282 28.2091 93.9331 24.9279 93.9331 21.5068C93.9331 18.0856 95.282 14.8044 97.6832 12.3844C100.086 9.96619 103.344 8.60781 106.741 8.60781C110.138 8.60781 113.397 9.96619 115.8 12.3844V12.3844ZM61.9234 5.18266e-06C64.7254 0.000742116 67.4999 0.557338 70.0883 1.63801C72.6768 2.71868 75.0285 4.30225 77.0092 6.2983C85.3478 14.6915 85.3478 28.3085 77.0092 36.7017C73.0035 40.7325 67.5725 42.9967 61.9099 42.9967C56.2473 42.9967 50.8164 40.7325 46.8107 36.7017C38.4743 28.3062 38.4743 14.6915 46.8107 6.29605C48.7916 4.3004 51.1434 2.71724 53.7318 1.63696C56.3202 0.556686 59.0946 0.000445645 61.8965 5.18266e-06H61.9234ZM70.9681 12.3799C73.37 14.8 74.7193 18.0817 74.7193 21.5034C74.7193 24.9251 73.37 28.2068 70.9681 30.6269C68.5651 33.0451 65.307 34.4035 61.9099 34.4035C58.5128 34.4035 55.2548 33.0451 52.8518 30.6269C50.4506 28.2069 49.1017 24.9257 49.1017 21.5045C49.1017 18.0834 50.4506 14.8022 52.8518 12.3821C55.2548 9.96393 58.5128 8.60555 61.9099 8.60555C65.307 8.60555 68.5651 9.96393 70.9681 12.3821V12.3799Z" fill="#2D8CFF"/>
</g>
<defs>
<clipPath id="clip0_106_67">
<rect width="190" height="43" fill="white"/>
</clipPath>
</defs>
</svg>
